<svg xmlns="http://www.w3.org/2000/svg" xmlns:xlink="http://www.w3.org/1999/xlink">
    <symbol id="logo" viewBox="0 0 64 32">
        <g fill="#F5C518">
            <rect x="0" y="0" width="100%" height="100%" rx="4"></rect>
        </g>
        <g transform="translate(8.000000, 7.000000)" fill="#000000" fill-rule="nonzero">
            <polygon points="0 18 5 18 5 0 0 0"></polygon>
            <path
                d="M15.6725178,0 L14.5534833,8.40846934 L13.8582008,3.83502426 C13.65661,2.37009263 13.4632474,1.09175121 13.278113,0 L7,0 L7,18 L11.2416347,18 L11.2580911,6.11380679 L13.0436094,18 L16.0633571,18 L17.7583653,5.8517865 L17.7707076,18 L22,18 L22,0 L15.6725178,0 Z">
            </path>
            <path
                d="M24,18 L24,0 L31.8045586,0 C33.5693522,0 35,1.41994415 35,3.17660424 L35,14.8233958 C35,16.5777858 33.5716617,18 31.8045586,18 L24,18 Z M29.8322479,3.2395236 C29.6339219,3.13233348 29.2545158,3.08072342 28.7026524,3.08072342 L28.7026524,14.8914865 C29.4312846,14.8914865 29.8796736,14.7604764 30.0478195,14.4865461 C30.2159654,14.2165858 30.3021941,13.486105 30.3021941,12.2871637 L30.3021941,5.3078959 C30.3021941,4.49404499 30.272014,3.97397442 30.2159654,3.74371416 C30.1599168,3.5134539 30.0348852,3.34671372 29.8322479,3.2395236 Z">
            </path>
            <path
                d="M44.4299079,4.50685823 L44.749518,4.50685823 C46.5447098,4.50685823 48,5.91267586 48,7.64486762 L48,14.8619906 C48,16.5950653 46.5451816,18 44.749518,18 L44.4299079,18 C43.3314617,18 42.3602746,17.4736618 41.7718697,16.6682739 L41.4838962,17.7687785 L37,17.7687785 L37,0 L41.7843263,0 L41.7843263,5.78053556 C42.4024982,5.01015739 43.3551514,4.50685823 44.4299079,4.50685823 Z M43.4055679,13.2842155 L43.4055679,9.01907814 C43.4055679,8.31433946 43.3603268,7.85185468 43.2660746,7.63896485 C43.1718224,7.42607505 42.7955881,7.2893916 42.5316822,7.2893916 C42.267776,7.2893916 41.8607934,7.40047379 41.7816216,7.58767002 L41.7816216,9.01907814 L41.7816216,13.4207851 L41.7816216,14.8074788 C41.8721037,15.0130276 42.2602358,15.1274059 42.5316822,15.1274059 C42.8031285,15.1274059 43.1982131,15.0166981 43.281155,14.8074788 C43.3640968,14.5982595 43.4055679,14.0880581 43.4055679,13.2842155 Z">
            </path>
        </g>
    </symbol>
    <symbol id="close-menu" viewBox="0 0 24 24">
        <!-- <path fill="none" d="M0 0h24v24H0V0z"></path> -->
        <path 
            d="M18.3 5.71a.996.996 0 0 0-1.41 0L12 10.59 7.11 5.7A.996.996 0 1 0 5.7 7.11L10.59 12 5.7 16.89a.996.996 0 1 0 1.41 1.41L12 13.41l4.89 4.89a.996.996 0 1 0 1.41-1.41L13.41 12l4.89-4.89c.38-.38.38-1.02 0-1.4z">
        </path>
    </symbol>
    <symbol id="movies" viewBox="0 0 24 24">
        <path
            d="M18 4v1h-2V4c0-.55-.45-1-1-1H9c-.55 0-1 .45-1 1v1H6V4c0-.55-.45-1-1-1s-1 .45-1 1v16c0 .55.45 1 1 1s1-.45 1-1v-1h2v1c0 .55.45 1 1 1h6c.55 0 1-.45 1-1v-1h2v1c0 .55.45 1 1 1s1-.45 1-1V4c0-.55-.45-1-1-1s-1 .45-1 1zM8 17H6v-2h2v2zm0-4H6v-2h2v2zm0-4H6V7h2v2zm10 8h-2v-2h2v2zm0-4h-2v-2h2v2zm0-4h-2V7h2v2z">
        </path>
    </symbol>
    <symbol id="tv" viewBox="0 0 24 24">
        <path
            d="M21 3H3c-1.1 0-2 .9-2 2v12c0 1.1.9 2 2 2h5v1c0 .55.45 1 1 1h6c.55 0 1-.45 1-1v-1h5c1.1 0 1.99-.9 1.99-2L23 5a2 2 0 0 0-2-2zm-1 14H4c-.55 0-1-.45-1-1V6c0-.55.45-1 1-1h16c.55 0 1 .45 1 1v10c0 .55-.45 1-1 1z">
        </path>
    </symbol>
    <symbol id="awards" viewBox="0 0 24 24">
        <path
            d="M11.99 2C6.47 2 2 6.48 2 12s4.47 10 9.99 10C17.52 22 22 17.52 22 12S17.52 2 11.99 2zm3.23 15.39L12 15.45l-3.22 1.94a.502.502 0 0 1-.75-.54l.85-3.66-2.83-2.45a.505.505 0 0 1 .29-.88l3.74-.32 1.46-3.45c.17-.41.75-.41.92 0l1.46 3.44 3.74.32a.5.5 0 0 1 .28.88l-2.83 2.45.85 3.67c.1.43-.36.77-.74.54z">
        </path>
    </symbol>
    <symbol id="celebs" viewBox="0 0 24 24">
        <path
            d="M16 11c1.66 0 2.99-1.34 2.99-3S17.66 5 16 5s-3 1.34-3 3 1.34 3 3 3zm-8 0c1.66 0 2.99-1.34 2.99-3S9.66 5 8 5 5 6.34 5 8s1.34 3 3 3zm0 2c-2.33 0-7 1.17-7 3.5V18c0 .55.45 1 1 1h12c.55 0 1-.45 1-1v-1.5c0-2.33-4.67-3.5-7-3.5zm8 0c-.29 0-.62.02-.97.05.02.01.03.03.04.04 1.14.83 1.93 1.94 1.93 3.41V18c0 .35-.07.69-.18 1H22c.55 0 1-.45 1-1v-1.5c0-2.33-4.67-3.5-7-3.5z">
        </path>
    </symbol>
    <symbol id="watch" viewBox="0 0 24 24">
        <path
            d="M3 6c-.55 0-1 .45-1 1v13c0 1.1.9 2 2 2h13c.55 0 1-.45 1-1s-.45-1-1-1H5c-.55 0-1-.45-1-1V7c0-.55-.45-1-1-1zm17-4H8c-1.1 0-2 .9-2 2v12c0 1.1.9 2 2 2h12c1.1 0 2-.9 2-2V4c0-1.1-.9-2-2-2zm-8 12.5v-9l5.47 4.1c.27.2.27.6 0 .8L12 14.5z">
        </path>
    </symbol>
    <symbol id="community" viewBox="0 0 24 24">
        <path
            d="M12 2C6.48 2 2 6.48 2 12s4.48 10 10 10 10-4.48 10-10S17.52 2 12 2zm-1 17.93c-3.95-.49-7-3.85-7-7.93 0-.62.08-1.21.21-1.79L9 15v1c0 1.1.9 2 2 2v1.93zm6.9-2.54c-.26-.81-1-1.39-1.9-1.39h-1v-3c0-.55-.45-1-1-1H8v-2h2c.55 0 1-.45 1-1V7h2c1.1 0 2-.9 2-2v-.41c2.93 1.19 5 4.06 5 7.41 0 2.08-.8 3.97-2.1 5.39z">
        </path>
    </symbol>
    <symbol id="filled-star" viewBox="0 0 24 24">
        <path
            d="M12 20.1l5.82 3.682c1.066.675 2.37-.322 2.09-1.584l-1.543-6.926 5.146-4.667c.94-.85.435-2.465-.799-2.567l-6.773-.602L13.29.89a1.38 1.38 0 0 0-2.581 0l-2.65 6.53-6.774.602C.052 8.126-.453 9.74.486 10.59l5.147 4.666-1.542 6.926c-.28 1.262 1.023 2.26 2.09 1.585L12 20.099z">
        </path>
    </symbol>
    <symbol id="empty-star" viewBox="0 0 24 24">
        <path
            d="M22.724 8.217l-6.786-.587-2.65-6.22c-.477-1.133-2.103-1.133-2.58 0l-2.65 6.234-6.772.573c-1.234.098-1.739 1.636-.8 2.446l5.146 4.446-1.542 6.598c-.28 1.202 1.023 2.153 2.09 1.51l5.818-3.495 5.819 3.509c1.065.643 2.37-.308 2.089-1.51l-1.542-6.612 5.145-4.446c.94-.81.45-2.348-.785-2.446zm-10.726 8.89l-5.272 3.174 1.402-5.983-4.655-4.026 6.141-.531 2.384-5.634 2.398 5.648 6.14.531-4.654 4.026 1.402 5.983-5.286-3.187z">
        </path>
    </symbol>

    <symbol id="watchlist-icon" viewBox="0 0 24 24">
        <polygon points="24 0 0 0 0 32 12.2436611 26.2926049 24 31.7728343"></polygon>
        <polygon points="24 0 0 0 0 32 12.2436611 26.2926049 24 31.7728343">
        </polygon>
        <polygon points="24 31.7728343 24 33.7728343 12.2436611 28.2926049 0 34 0 32 12.2436611 26.2926049"></polygon>
    </symbol>
    <symbol id="watchlist-header-icon" viewBox="0 0 24 24">
        <path
            d="M17 3c1.05 0 1.918.82 1.994 1.851L19 5v16l-7-3-7 3V5c0-1.05.82-1.918 1.851-1.994L7 3h10zm-4 4h-2v3H8v2h3v3h2v-3h3v-2h-3V7z"
            fill="#ffffff"></path>
    </symbol>
    <symbol id="plus-icon" viewBox="0 0 24 24">
        <path
            d="M18 13h-5v5c0 .55-.45 1-1 1s-1-.45-1-1v-5H6c-.55 0-1-.45-1-1s.45-1 1-1h5V6c0-.55.45-1 1-1s1 .45 1 1v5h5c.55 0 1 .45 1 1s-.45 1-1 1z">
        </path>
    </symbol>
    <symbol id="card-play-icon" viewBox="0 0 24 24">
        <path d="M8 6.82v10.36c0 .79.87 1.27 1.54.84l8.14-5.18a1 1 0 0 0 0-1.69L9.54 5.98A.998.998 0 0 0 8 6.82z">
        </path>
    </symbol>
    <symbol id="movie-info-icon" viewBox="0 0 24 24">
        <path fill="none" d="M0 0h24v24H0V0z"></path>
        <path
            d="M11 7h2v2h-2zm0 4h2v6h-2zm1-9C6.48 2 2 6.48 2 12s4.48 10 10 10 10-4.48 10-10S17.52 2 12 2zm0 18c-4.41 0-8-3.59-8-8s3.59-8 8-8 8 3.59 8 8-3.59 8-8 8z">
        </path>
    </symbol>
    <symbol id="movie-play-icon" viewBox="0 0 24 24">
        <path
            d="M10.803 15.932l4.688-3.513a.498.498 0 0 0 0-.803l-4.688-3.514a.502.502 0 0 0-.803.402v7.026c0 .412.472.653.803.402z">
        </path>
        <path
            d="M12 24C5.373 24 0 18.627 0 12S5.373 0 12 0s12 5.373 12 12-5.373 12-12 12zm0-1c6.075 0 11-4.925 11-11S18.075 1 12 1 1 5.925 1 12s4.925 11 11 11z">
        </path>
    </symbol>
    <symbol id="arrow" viewBox="0 0 24 24">
        <path
            d="M5.622.631A2.153 2.153 0 0 0 5 2.147c0 .568.224 1.113.622 1.515l8.249 8.34-8.25 8.34a2.16 2.16 0 0 0-.548 2.07c.196.74.768 1.317 1.499 1.515a2.104 2.104 0 0 0 2.048-.555l9.758-9.866a2.153 2.153 0 0 0 0-3.03L8.62.61C7.812-.207 6.45-.207 5.622.63z">
        </path>
    </symbol>
    <symbol id="done-icon" viewBox="0 0 24 24">
        <path fill="none" d="M0 0h24v24H0V0z"></path>
        <path
            d="M9 16.2l-3.5-3.5a.984.984 0 0 0-1.4 0 .984.984 0 0 0 0 1.4l4.19 4.19c.39.39 1.02.39 1.41 0L20.3 7.7a.984.984 0 0 0 0-1.4.984.984 0 0 0-1.4 0L9 16.2z">
        </path>
    </symbol>
    <symbol id="privacy-choices" viewBox="0 0 30 14">
        <g>
            <g id="final---dec.11-2020_1_">
                <g id="_x30_208-our-toggle_2_" transform="translate(-1275.000000, -200.000000)">
                    <g id="Final-Copy-2_2_" transform="translate(1275.000000, 200.000000)">
                        <path fill="#ffffff" class="st0"
                            d="M7.4,12.8h6.8l3.1-11.6H7.4C4.2,1.2,1.6,3.8,1.6,7S4.2,12.8,7.4,12.8z">
                        </path>
                    </g>
                </g>
            </g>
            <g>
                <g transform="translate(-1275.000000, -200.000000)">
                    <g transform="translate(1275.000000, 200.000000)">
                        <path fill="#0066ff" d="M22.6,0H7.4c-3.9,0-7,3.1-7,7s3.1,7,7,7h15.2c3.9,0,7-3.1,7-7S26.4,0,22.6,0z M1.6,7c0-3.2,2.6-5.8,5.8-5.8
                            h9.9l-3.1,11.6H7.4C4.2,12.8,1.6,10.2,1.6,7z"></path>
                        <path fill="#ffffff" id="x" class="st2" d="M24.6,4c0.2,0.2,0.2,0.6,0,0.8l0,0L22.5,7l2.2,2.2c0.2,0.2,0.2,0.6,0,0.8c-0.2,0.2-0.6,0.2-0.8,0
                            l0,0l-2.2-2.2L19.5,10c-0.2,0.2-0.6,0.2-0.8,0c-0.2-0.2-0.2-0.6,0-0.8l0,0L20.8,7l-2.2-2.2c-0.2-0.2-0.2-0.6,0-0.8
                            c0.2-0.2,0.6-0.2,0.8,0l0,0l2.2,2.2L23.8,4C24,3.8,24.4,3.8,24.6,4z"></path>
                        <path fill="#0066ff" id="y" class="st3"
                            d="M12.7,4.1c0.2,0.2,0.3,0.6,0.1,0.8l0,0L8.6,9.8C8.5,9.9,8.4,10,8.3,10c-0.2,0.1-0.5,0.1-0.7-0.1l0,0
                            L5.4,7.7c-0.2-0.2-0.2-0.6,0-0.8c0.2-0.2,0.6-0.2,0.8,0l0,0L8,8.6l3.8-4.5C12,3.9,12.4,3.9,12.7,4.1z"></path>
                    </g>
                </g>
            </g>
        </g>
    </symbol>
    <symbol id='link-icon' viewBox="0 0 24 24">
        <path
            d="M21.6 21.6H2.4V2.4h7.2V0H0v24h24v-9.6h-2.4v7.2zM14.4 0v2.4h4.8L7.195 14.49l2.4 2.4L21.6 4.8v4.8H24V0h-9.6z">
        </path>
    </symbol>
    <symbol id="search" viewBox="0 0 24 24">
        <path fill="none" d="M0 0h24v24H0V0z"></path>
        <path
            d="M15.5 14h-.79l-.28-.27a6.5 6.5 0 0 0 1.48-5.34c-.47-2.78-2.79-5-5.59-5.34a6.505 6.505 0 0 0-7.27 7.27c.34 2.8 2.56 5.12 5.34 5.59a6.5 6.5 0 0 0 5.34-1.48l.27.28v.79l4.25 4.25c.41.41 1.08.41 1.49 0 .41-.41.41-1.08 0-1.49L15.5 14zm-6 0C7.01 14 5 11.99 5 9.5S7.01 5 9.5 5 14 7.01 14 9.5 11.99 14 9.5 14z">
        </path>
    </symbol>

</svg>